<?xml version="1.0" encoding="UTF-8"?>
<svg width="10px" height="10px" viewBox="0 0 10 10" version="1.1" xmlns="http://www.w3.org/2000/svg" xmlns:xlink="http://www.w3.org/1999/xlink">
    <title>mdpi/icn_timer_line</title>
    <defs>
        <path d="M10,6.5 C10,4.2945 8.2055,2.5 6,2.5 C3.7945,2.5 2,4.2945 2,6.5 C2,8.7055 3.7945,10.5 6,10.5 C8.2055,10.5 10,8.7055 10,6.5 L10,6.5 Z M10.5,6.5 C10.5,8.981 8.481,11 6,11 C3.519,11 1.5,8.981 1.5,6.5 C1.5,4.019 3.519,2 6,2 C7.107,2 8.1205,2.404 8.9055,3.0695 L9.621,2.3535 L9.975,2.707 L9.267,3.415 C10.029,4.2215 10.5,5.3055 10.5,6.5 L10.5,6.5 Z M4.5,1.5 L7.5,1.5 L7.5,1 L4.5,1 L4.5,1.5 Z M5.75,7 L6.25,7 L6.25,4 L5.75,4 L5.75,7 Z" id="path-1"></path>
    </defs>
    <g id="Page-1" stroke="none" stroke-width="1" fill="none" fill-rule="evenodd">
        <g id="Artboard" transform="translate(-125.000000, -637.000000)">
            <g id="desktop_library" transform="translate(108.000000, 108.000000)">
                <g id="row_2" transform="translate(0.000000, 304.000000)">
                    <g id="stats" transform="translate(16.000000, 223.000000)">
                        <g id="Icon-/-Time-/-icn_timer_line" transform="translate(0.000000, 1.000000)">
                            <rect id="Rectangle-1-Copy-147" x="0" y="0" width="12" height="12"></rect>
                            <mask id="mask-2" fill="white">
                                <use xlink:href="#path-1"></use>
                            </mask>
                            <use id="Page-1" fill="#2E3134" xlink:href="#path-1"></use>
                            <g id="Group" mask="url(#mask-2)" fill="#2E3134">
                                <g id="Select-Color">
                                    <rect id="Rectangle-4" x="0" y="0" width="12" height="12"></rect>
                                </g>
                            </g>
                        </g>
                    </g>
                </g>
            </g>
        </g>
    </g>
</svg>