<?xml version="1.0" encoding="UTF-8"?>
<svg width="28px" height="21px" viewBox="0 0 28 21" version="1.1" xmlns="http://www.w3.org/2000/svg" xmlns:xlink="http://www.w3.org/1999/xlink">
    <title>icn_playlist copy 3</title>
    <defs>
        <filter x="-2.7%" y="-9.3%" width="103.8%" height="123.6%" filterUnits="objectBoundingBox" id="filter-1">
            <feOffset dx="0" dy="2" in="SourceAlpha" result="shadowOffsetOuter1"></feOffset>
            <feGaussianBlur stdDeviation="2" in="shadowOffsetOuter1" result="shadowBlurOuter1"></feGaussianBlur>
            <feColorMatrix values="0 0 0 0 0   0 0 0 0 0   0 0 0 0 0  0 0 0 0.5 0" type="matrix" in="shadowBlurOuter1" result="shadowMatrixOuter1"></feColorMatrix>
            <feMerge>
                <feMergeNode in="shadowMatrixOuter1"></feMergeNode>
                <feMergeNode in="SourceGraphic"></feMergeNode>
            </feMerge>
        </filter>
        <path d="M2,7 L19,7 L19,6 L2,6 L2,7 Z M2,11 L19,11 L19,10 L2,10 L2,11 Z M17,19 L22,16 L17,13 L17,19 Z M18,14.766 L20.057,16 L18,17.233 L18,14.766 Z M2,15 L15,15 L15,13.999 L2,13.999 L2,15 Z" id="path-2"></path>
    </defs>
    <g id="Page-1" stroke="none" stroke-width="1" fill="none" fill-rule="evenodd">
        <g id="Artboard" transform="translate(-638.000000, -211.000000)">
            <g id="row_1" transform="translate(108.000000, 108.000000)" filter="url(#filter-1)">
                <g id="2" transform="translate(312.000000, 0.000000)">
                    <g id="Group-3" transform="translate(176.000000, 0.000000)">
                        <g id="Group-7" transform="translate(27.000000, 41.000000)">
                            <g id="Icon-/-Video-/-icn_playlist" transform="translate(17.000000, 58.000000)">
                                <rect id="Rectangle-1-Copy-265" x="0" y="0" width="24" height="24"></rect>
                                <mask id="mask-3" fill="white">
                                    <use xlink:href="#path-2"></use>
                                </mask>
                                <use id="Page-1" fill="#231F20" xlink:href="#path-2"></use>
                                <g id="Group" mask="url(#mask-3)" fill="#FFFFFF">
                                    <g id="Rectangle-4">
                                        <rect x="0" y="0" width="24" height="24"></rect>
                                    </g>
                                </g>
                            </g>
                        </g>
                    </g>
                </g>
            </g>
        </g>
    </g>
</svg>