<?xml version="1.0" encoding="UTF-8"?>
<svg width="11px" height="11px" viewBox="0 0 11 11" version="1.1" xmlns="http://www.w3.org/2000/svg" xmlns:xlink="http://www.w3.org/1999/xlink">
    <title>icn_distance_line</title>
    <defs>
        <path d="M7.33342739,5.2745 L4.85142739,7.4625 C4.75592739,7.5465 4.63742739,7.5905 4.50892739,7.5905 C4.42342739,7.5905 4.26042739,7.5695 4.12992739,7.4275 C4.04342739,7.334 3.99992739,7.2145 4.00642739,7.091 C4.01242739,6.9665 4.06892739,6.8505 4.16592739,6.7655 L6.64842739,4.5775 C6.74242739,4.495 6.86392739,4.45 6.99042739,4.45 C7.07592739,4.45 7.23942739,4.4715 7.36992739,4.613 C7.45592739,4.7065 7.49992739,4.826 7.49342739,4.949 C7.48592739,5.0765 7.42842739,5.191 7.33342739,5.2745 L7.33342739,5.2745 Z M7.73842739,4.2745 C7.54892739,4.0685 7.27642739,3.95 6.99042739,3.95 C6.74192739,3.95 6.50292739,4.0395 6.31842739,4.2025 L3.83492739,6.3905 C3.63692739,6.565 3.52042739,6.8045 3.50692739,7.0645 C3.49342739,7.3235 3.58342739,7.5725 3.76142739,7.7655 C3.95142739,7.9725 4.22392739,8.0905 4.50892739,8.0905 C4.75792739,8.0905 4.99692739,8.0005 5.18142739,7.838 L7.66392739,5.65 C7.86242739,5.475 7.97892739,5.2355 7.99242739,4.975 C8.00642739,4.7165 7.91592739,4.468 7.73842739,4.2745 L7.73842739,4.2745 Z M7.53142739,7.873 L6.38192739,8.8865 C5.86692739,9.34 5.20192739,9.59 4.50942739,9.59 C3.80792739,9.59 3.13642739,9.335 2.61892739,8.8715 L2.51392739,8.7775 L2.94792739,8.3955 L3.03042739,8.4685 C3.43742739,8.826 3.96292739,9.0225 4.50942739,9.0225 C5.05642739,9.0225 5.58192739,8.825 5.98842739,8.4665 L7.14142739,7.4505 L7.53142739,7.873 Z M10.4954274,5.1015 C10.4479274,6.0165 10.0374274,6.8585 9.34092739,7.4725 L6.85592739,9.6625 C6.21092739,10.2295 5.37792739,10.542 4.50992739,10.542 C3.51492739,10.542 2.56342739,10.1285 1.89892739,9.407 C1.27442739,8.7275 0.956927392,7.852 1.00442739,6.9405 C1.05192739,6.0265 1.46092739,5.185 2.15542739,4.571 L4.64192739,2.38 C5.28642739,1.8115 6.12042739,1.498 6.98992739,1.498 C7.98442739,1.498 8.93592739,1.912 9.59992739,2.634 C10.2249274,3.313 10.5434274,4.1895 10.4954274,5.1015 L10.4954274,5.1015 Z M6.98892739,1 C5.99692739,1 5.04592739,1.357 4.31092739,2.0045 L1.82542739,4.196 C1.02892739,4.8995 0.559927392,5.865 0.505427392,6.915 C0.450427392,7.9615 0.814927392,8.967 1.53142739,9.745 C2.28792739,10.568 3.37442739,11.04 4.51092739,11.04 C5.50092739,11.04 6.45142739,10.684 7.18642739,10.0375 L9.67142739,7.8475 C10.4694274,7.144 10.9394274,6.178 10.9949274,5.1275 C11.0499274,4.081 10.6854274,3.075 9.96892739,2.2955 C9.21092739,1.472 8.12492739,1 6.98892739,1 L6.98892739,1 Z" id="path-1"></path>
    </defs>
    <g id="Page-1" stroke="none" stroke-width="1" fill="none" fill-rule="evenodd">
        <g id="Artboard" transform="translate(-173.000000, -637.000000)">
            <g id="desktop_library" transform="translate(108.000000, 108.000000)">
                <g id="row_2" transform="translate(0.000000, 304.000000)">
                    <g id="stats" transform="translate(16.000000, 223.000000)">
                        <g id="metric_distance" transform="translate(49.000000, 0.000000)">
                            <g id="Icon-/-Metrics-/-icn_distance_line" transform="translate(0.000000, 1.000000)">
                                <rect id="Rectangle-250" x="0" y="0" width="12" height="12"></rect>
                                <mask id="mask-2" fill="white">
                                    <use xlink:href="#path-1"></use>
                                </mask>
                                <use id="Fill-1" fill="#2E3134" xlink:href="#path-1"></use>
                                <g id="Group" mask="url(#mask-2)" fill="#2E3134">
                                    <g id="Select-Color">
                                        <rect id="Rectangle-4" x="0" y="0" width="12" height="12"></rect>
                                    </g>
                                </g>
                            </g>
                        </g>
                    </g>
                </g>
            </g>
        </g>
    </g>
</svg>